<?xml version="1.0" encoding="utf-8" standalone="no"?>
<!DOCTYPE svg PUBLIC "-//W3C//DTD SVG 1.1//EN"
  "http://www.w3.org/Graphics/SVG/1.1/DTD/svg11.dtd">
<svg xmlns:xlink="http://www.w3.org/1999/xlink" width="460.8pt" height="273.6pt" viewBox="0 0 460.8 273.6" xmlns="http://www.w3.org/2000/svg" version="1.1">
 <metadata>
  <rdf:RDF xmlns:dc="http://purl.org/dc/elements/1.1/" xmlns:cc="http://creativecommons.org/ns#" xmlns:rdf="http://www.w3.org/1999/02/22-rdf-syntax-ns#">
   <cc:Work>
    <dc:type rdf:resource="http://purl.org/dc/dcmitype/StillImage"/>
    <dc:format>image/svg+xml</dc:format>
    <dc:creator>
     <cc:Agent>
      <dc:title>Matplotlib v3.11.2, https://matplotlib.org/</dc:title>
     </cc:Agent>
    </dc:creator>
   </cc:Work>
  </rdf:RDF>
 </metadata>
 <defs>
  <style type="text/css">*{stroke-linejoin: round; stroke-linecap: butt}</style>
 </defs>
 <g id="figure_1">
  <g id="patch_1">
   <path d="M 0 273.6 
L 460.8 273.6 
L 460.8 0 
L 0 0 
z
" style="fill: #ffffff"/>
  </g>
  <g id="axes_1">
   <g id="patch_2">
    <path d="M 38.743209 207.322303 
L 454.61851 207.322303 
L 454.61851 3.00024 
L 38.743209 3.00024 
z
" style="fill: #ffffff"/>
   </g>
   <g id="matplotlib.axis_1">
    <g id="xtick_1">
     <g id="line2d_1">
      <path d="M 38.743209 207.322303 
L 38.743209 3.00024 
" clip-path="url(#pbb8f236338)" style="fill: none; stroke: #edf1f6; stroke-width: 0.8; stroke-linecap: square"/>
     </g>
     <g id="line2d_2"/>
     <g id="text_1">
      <text style="font-size: 10px; font-family: 'DejaVu Sans'; text-anchor: middle; fill: #64768e" x="38.743209" y="221.919959" transform="rotate(-0 38.743209 221.919959)">−3</text>
     </g>
    </g>
    <g id="xtick_2">
     <g id="line2d_3">
      <path d="M 108.055759 207.322303 
L 108.055759 3.00024 
" clip-path="url(#pbb8f236338)" style="fill: none; stroke: #edf1f6; stroke-width: 0.8; stroke-linecap: square"/>
     </g>
     <g id="line2d_4"/>
     <g id="text_2">
      <text style="font-size: 10px; font-family: 'DejaVu Sans'; text-anchor: middle; fill: #64768e" x="108.055759" y="221.919959" transform="rotate(-0 108.055759 221.919959)">−2</text>
     </g>
    </g>
    <g id="xtick_3">
     <g id="line2d_5">
      <path d="M 177.368309 207.322303 
L 177.368309 3.00024 
" clip-path="url(#pbb8f236338)" style="fill: none; stroke: #edf1f6; stroke-width: 0.8; stroke-linecap: square"/>
     </g>
     <g id="line2d_6"/>
     <g id="text_3">
      <text style="font-size: 10px; font-family: 'DejaVu Sans'; text-anchor: middle; fill: #64768e" x="177.368309" y="221.919959" transform="rotate(-0 177.368309 221.919959)">−1</text>
     </g>
    </g>
    <g id="xtick_4">
     <g id="line2d_7">
      <path d="M 246.680859 207.322303 
L 246.680859 3.00024 
" clip-path="url(#pbb8f236338)" style="fill: none; stroke: #edf1f6; stroke-width: 0.8; stroke-linecap: square"/>
     </g>
     <g id="line2d_8"/>
     <g id="text_4">
      <text style="font-size: 10px; font-family: 'DejaVu Sans'; text-anchor: middle; fill: #64768e" x="246.680859" y="221.919959" transform="rotate(-0 246.680859 221.919959)">0</text>
     </g>
    </g>
    <g id="xtick_5">
     <g id="line2d_9">
      <path d="M 315.99341 207.322303 
L 315.99341 3.00024 
" clip-path="url(#pbb8f236338)" style="fill: none; stroke: #edf1f6; stroke-width: 0.8; stroke-linecap: square"/>
     </g>
     <g id="line2d_10"/>
     <g id="text_5">
      <text style="font-size: 10px; font-family: 'DejaVu Sans'; text-anchor: middle; fill: #64768e" x="315.99341" y="221.919959" transform="rotate(-0 315.99341 221.919959)">1</text>
     </g>
    </g>
    <g id="xtick_6">
     <g id="line2d_11">
      <path d="M 385.30596 207.322303 
L 385.30596 3.00024 
" clip-path="url(#pbb8f236338)" style="fill: none; stroke: #edf1f6; stroke-width: 0.8; stroke-linecap: square"/>
     </g>
     <g id="line2d_12"/>
     <g id="text_6">
      <text style="font-size: 10px; font-family: 'DejaVu Sans'; text-anchor: middle; fill: #64768e" x="385.30596" y="221.919959" transform="rotate(-0 385.30596 221.919959)">2</text>
     </g>
    </g>
    <g id="xtick_7">
     <g id="line2d_13">
      <path d="M 454.61851 207.322303 
L 454.61851 3.00024 
" clip-path="url(#pbb8f236338)" style="fill: none; stroke: #edf1f6; stroke-width: 0.8; stroke-linecap: square"/>
     </g>
     <g id="line2d_14"/>
     <g id="text_7">
      <text style="font-size: 10px; font-family: 'DejaVu Sans'; text-anchor: middle; fill: #64768e" x="454.61851" y="221.919959" transform="rotate(-0 454.61851 221.919959)">3</text>
     </g>
    </g>
    <g id="text_8">
     <text style="font-size: 10px; font-family: 'DejaVu Sans'; text-anchor: middle; fill: #64768e" x="246.680859" y="236.32074" transform="rotate(-0 246.680859 236.32074)">Entrée x</text>
    </g>
   </g>
   <g id="matplotlib.axis_2">
    <g id="ytick_1">
     <g id="line2d_15">
      <path d="M 38.743209 190.295464 
L 454.61851 190.295464 
" clip-path="url(#pbb8f236338)" style="fill: none; stroke: #edf1f6; stroke-width: 0.8; stroke-linecap: square"/>
     </g>
     <g id="line2d_16"/>
     <g id="text_9">
      <text style="font-size: 10px; font-family: 'DejaVu Sans'; text-anchor: end; fill: #64768e" x="31.743209" y="194.094292" transform="rotate(-0 31.743209 194.094292)">−2</text>
     </g>
    </g>
    <g id="ytick_2">
     <g id="line2d_17">
      <path d="M 38.743209 147.728368 
L 454.61851 147.728368 
" clip-path="url(#pbb8f236338)" style="fill: none; stroke: #edf1f6; stroke-width: 0.8; stroke-linecap: square"/>
     </g>
     <g id="line2d_18"/>
     <g id="text_10">
      <text style="font-size: 10px; font-family: 'DejaVu Sans'; text-anchor: end; fill: #64768e" x="31.743209" y="151.527196" transform="rotate(-0 31.743209 151.527196)">−1</text>
     </g>
    </g>
    <g id="ytick_3">
     <g id="line2d_19">
      <path d="M 38.743209 105.161271 
L 454.61851 105.161271 
" clip-path="url(#pbb8f236338)" style="fill: none; stroke: #edf1f6; stroke-width: 0.8; stroke-linecap: square"/>
     </g>
     <g id="line2d_20"/>
     <g id="text_11">
      <text style="font-size: 10px; font-family: 'DejaVu Sans'; text-anchor: end; fill: #64768e" x="31.743209" y="108.9601" transform="rotate(-0 31.743209 108.9601)">0</text>
     </g>
    </g>
    <g id="ytick_4">
     <g id="line2d_21">
      <path d="M 38.743209 62.594175 
L 454.61851 62.594175 
" clip-path="url(#pbb8f236338)" style="fill: none; stroke: #edf1f6; stroke-width: 0.8; stroke-linecap: square"/>
     </g>
     <g id="line2d_22"/>
     <g id="text_12">
      <text style="font-size: 10px; font-family: 'DejaVu Sans'; text-anchor: end; fill: #64768e" x="31.743209" y="66.393003" transform="rotate(-0 31.743209 66.393003)">1</text>
     </g>
    </g>
    <g id="ytick_5">
     <g id="line2d_23">
      <path d="M 38.743209 20.027079 
L 454.61851 20.027079 
" clip-path="url(#pbb8f236338)" style="fill: none; stroke: #edf1f6; stroke-width: 0.8; stroke-linecap: square"/>
     </g>
     <g id="line2d_24"/>
     <g id="text_13">
      <text style="font-size: 10px; font-family: 'DejaVu Sans'; text-anchor: end; fill: #64768e" x="31.743209" y="23.825907" transform="rotate(-0 31.743209 23.825907)">2</text>
     </g>
    </g>
    <g id="text_14">
     <text style="font-size: 10px; font-family: 'DejaVu Sans'; text-anchor: middle; fill: #64768e" x="10.598678" y="105.161271" transform="rotate(-90 10.598678 105.161271)">Sortie y</text>
    </g>
   </g>
   <g id="FillBetweenPolyCollection_1">
    <defs>
     <path id="m0c58c48e56" d="M 38.743209 -149.791451 
L 38.743209 -148.050764 
L 39.782897 -148.383647 
L 40.822585 -148.714983 
L 41.862274 -149.044773 
L 42.901962 -149.373015 
L 43.94165 -149.69971 
L 44.981338 -150.024857 
L 46.021027 -150.348456 
L 47.060715 -150.670507 
L 48.100403 -150.991008 
L 49.140091 -151.309959 
L 50.17978 -151.627361 
L 51.219468 -151.943212 
L 52.259156 -152.257512 
L 53.298844 -152.570261 
L 54.338533 -152.881459 
L 55.378221 -153.191104 
L 56.417909 -153.499196 
L 57.457597 -153.805735 
L 58.497286 -154.110721 
L 59.536974 -154.414152 
L 60.576662 -154.716029 
L 61.61635 -155.016351 
L 62.656039 -155.315118 
L 63.695727 -155.612329 
L 64.735415 -155.907983 
L 65.775103 -156.20208 
L 66.814792 -156.49462 
L 67.85448 -156.785602 
L 68.894168 -157.075026 
L 69.933856 -157.362891 
L 70.973545 -157.649197 
L 72.013233 -157.933943 
L 73.052921 -158.217129 
L 74.092609 -158.498755 
L 75.132298 -158.778819 
L 76.171986 -159.057323 
L 77.211674 -159.334264 
L 78.251362 -159.609643 
L 79.291051 -159.88346 
L 80.330739 -160.155713 
L 81.370427 -160.426403 
L 82.410115 -160.695529 
L 83.449804 -160.963092 
L 84.489492 -161.22909 
L 85.52918 -161.493523 
L 86.568868 -161.756391 
L 87.608557 -162.017695 
L 88.648245 -162.277432 
L 89.687933 -162.535604 
L 90.727621 -162.792211 
L 91.76731 -163.047251 
L 92.806998 -163.300725 
L 93.846686 -163.552633 
L 94.886374 -163.802974 
L 95.926063 -164.05175 
L 96.965751 -164.298959 
L 98.005439 -164.544601 
L 99.045127 -164.788678 
L 100.084816 -165.031188 
L 101.124504 -165.272133 
L 102.164192 -165.511511 
L 103.20388 -165.749324 
L 104.243569 -165.985572 
L 105.283257 -166.220255 
L 106.322945 -166.453373 
L 107.362633 -166.684927 
L 108.402322 -166.914917 
L 109.44201 -167.143344 
L 110.481698 -167.370207 
L 111.521386 -167.595509 
L 112.561075 -167.819249 
L 113.600763 -168.041429 
L 114.640451 -168.262048 
L 115.680139 -168.481107 
L 116.719828 -168.698608 
L 117.759516 -168.914551 
L 118.799204 -169.128937 
L 119.838892 -169.341767 
L 120.878581 -169.553042 
L 121.918269 -169.762763 
L 122.957957 -169.970932 
L 123.997646 -170.177548 
L 125.037334 -170.382613 
L 126.077022 -170.58613 
L 127.11671 -170.788097 
L 128.156399 -170.988518 
L 129.196087 -171.187393 
L 130.235775 -171.384723 
L 131.275463 -171.58051 
L 132.315152 -171.774755 
L 133.35484 -171.96746 
L 134.394528 -172.158626 
L 135.434216 -172.348254 
L 136.473905 -172.536346 
L 137.513593 -172.722903 
L 138.553281 -172.907927 
L 139.592969 -173.091419 
L 140.632658 -173.273381 
L 141.672346 -173.453815 
L 142.712034 -173.632721 
L 143.751722 -173.810102 
L 144.791411 -173.985958 
L 145.831099 -174.160292 
L 146.870787 -174.333105 
L 147.910475 -174.504399 
L 148.950164 -174.674174 
L 149.989852 -174.842433 
L 151.02954 -175.009177 
L 152.069228 -175.174408 
L 153.108917 -175.338127 
L 154.148605 -175.500336 
L 155.188293 -175.661036 
L 156.227981 -175.820228 
L 157.26767 -175.977914 
L 158.307358 -176.134096 
L 159.347046 -176.288775 
L 160.386734 -176.441953 
L 161.426423 -176.59363 
L 162.466111 -176.743808 
L 163.505799 -176.892488 
L 164.545487 -177.039673 
L 165.585176 -177.185363 
L 166.624864 -177.329559 
L 167.664552 -177.472263 
L 168.70424 -177.613476 
L 169.743929 -177.753199 
L 170.783617 -177.891433 
L 171.823305 -178.028181 
L 172.862993 -178.163442 
L 173.902682 -178.297218 
L 174.94237 -178.42951 
L 175.982058 -178.560319 
L 177.021746 -178.689646 
L 178.061435 -178.817493 
L 179.101123 -178.94386 
L 180.140811 -179.068748 
L 181.180499 -179.192159 
L 182.220188 -179.314093 
L 183.259876 -179.434551 
L 184.299564 -179.553534 
L 185.339252 -179.671043 
L 186.378941 -179.787078 
L 187.418629 -179.901642 
L 188.458317 -180.014734 
L 189.498005 -180.126355 
L 190.537694 -180.236506 
L 191.577382 -180.345189 
L 192.61707 -180.452402 
L 193.656758 -180.558148 
L 194.696447 -180.662427 
L 195.736135 -180.765239 
L 196.775823 -180.866585 
L 197.815511 -180.966467 
L 198.8552 -181.064883 
L 199.894888 -181.161836 
L 200.934576 -181.257325 
L 201.974264 -181.351352 
L 203.013953 -181.443916 
L 204.053641 -181.535018 
L 205.093329 -181.624658 
L 206.133018 -181.712838 
L 207.172706 -181.799557 
L 208.212394 -181.884817 
L 209.252082 -181.968616 
L 210.291771 -182.050957 
L 211.331459 -182.131838 
L 212.371147 -182.211261 
L 213.410835 -182.289226 
L 214.450524 -182.365733 
L 215.490212 -182.440782 
L 216.5299 -182.514374 
L 217.569588 -182.586509 
L 218.609277 -182.657188 
L 219.648965 -182.726409 
L 220.688653 -182.794175 
L 221.728341 -182.860484 
L 222.76803 -182.925338 
L 223.807718 -182.988736 
L 224.847406 -183.050678 
L 225.887094 -183.111165 
L 226.926783 -183.170197 
L 227.966471 -183.227774 
L 229.006159 -183.283895 
L 230.045847 -183.338562 
L 231.085536 -183.391774 
L 232.125224 -183.443531 
L 233.164912 -183.493833 
L 234.2046 -183.54268 
L 235.244289 -183.590073 
L 236.283977 -183.636011 
L 237.323665 -183.680494 
L 238.363353 -183.723522 
L 239.403042 -183.765096 
L 240.44273 -183.805214 
L 241.482418 -183.843878 
L 242.522106 -183.881086 
L 243.561795 -183.91684 
L 244.601483 -183.951138 
L 245.641171 -183.98398 
L 246.680859 -184.015367 
L 247.720548 -184.045299 
L 248.760236 -184.073774 
L 249.799924 -184.100793 
L 250.839612 -184.126356 
L 251.879301 -184.150463 
L 252.918989 -184.173112 
L 253.958677 -184.194305 
L 254.998365 -184.21404 
L 256.038054 -184.232318 
L 257.077742 -184.249137 
L 258.11743 -184.264499 
L 259.157118 -184.278402 
L 260.196807 -184.290846 
L 261.236495 -184.301831 
L 262.276183 -184.311356 
L 263.315871 -184.319421 
L 264.35556 -184.326025 
L 265.395248 -184.331169 
L 266.434936 -184.334851 
L 267.474624 -184.337072 
L 268.514313 -184.33783 
L 269.554001 -184.337125 
L 270.593689 -184.334957 
L 271.633377 -184.331326 
L 272.673066 -184.326229 
L 273.712754 -184.319668 
L 274.752442 -184.311641 
L 275.79213 -184.302148 
L 276.831819 -184.291188 
L 277.871507 -184.278761 
L 278.911195 -184.264865 
L 279.950883 -184.249501 
L 280.990572 -184.232667 
L 282.03026 -184.214362 
L 283.069948 -184.194587 
L 284.109636 -184.17334 
L 285.149325 -184.15062 
L 286.189013 -184.126427 
L 287.228701 -184.10076 
L 288.26839 -184.073617 
L 289.308078 -184.044999 
L 290.347766 -184.014903 
L 291.387454 -183.98333 
L 292.427143 -183.950279 
L 293.466831 -183.915747 
L 294.506519 -183.879735 
L 295.546207 -183.842242 
L 296.585896 -183.803265 
L 297.625584 -183.762806 
L 298.665272 -183.720861 
L 299.70496 -183.677431 
L 300.744649 -183.632514 
L 301.784337 -183.586108 
L 302.824025 -183.538214 
L 303.863713 -183.488829 
L 304.903402 -183.437953 
L 305.94309 -183.385585 
L 306.982778 -183.331722 
L 308.022466 -183.276365 
L 309.062155 -183.219511 
L 310.101843 -183.16116 
L 311.141531 -183.10131 
L 312.181219 -183.039959 
L 313.220908 -182.977108 
L 314.260596 -182.912753 
L 315.300284 -182.846895 
L 316.339972 -182.779531 
L 317.379661 -182.710661 
L 318.419349 -182.640282 
L 319.459037 -182.568394 
L 320.498725 -182.494995 
L 321.538414 -182.420084 
L 322.578102 -182.343659 
L 323.61779 -182.26572 
L 324.657478 -182.186264 
L 325.697167 -182.10529 
L 326.736855 -182.022797 
L 327.776543 -181.938783 
L 328.816231 -181.853248 
L 329.85592 -181.766189 
L 330.895608 -181.677605 
L 331.935296 -181.587495 
L 332.974984 -181.495858 
L 334.014673 -181.402692 
L 335.054361 -181.307996 
L 336.094049 -181.211768 
L 337.133737 -181.114007 
L 338.173426 -181.014713 
L 339.213114 -180.913883 
L 340.252802 -180.811516 
L 341.29249 -180.707611 
L 342.332179 -180.602167 
L 343.371867 -180.495183 
L 344.411555 -180.386657 
L 345.451243 -180.276588 
L 346.490932 -180.164976 
L 347.53062 -180.051818 
L 348.570308 -179.937115 
L 349.609996 -179.820865 
L 350.649685 -179.703066 
L 351.689373 -179.583719 
L 352.729061 -179.462822 
L 353.768749 -179.340374 
L 354.808438 -179.216374 
L 355.848126 -179.090821 
L 356.887814 -178.963716 
L 357.927502 -178.835056 
L 358.967191 -178.704841 
L 360.006879 -178.573071 
L 361.046567 -178.439745 
L 362.086255 -178.304862 
L 363.125944 -178.168422 
L 364.165632 -178.030424 
L 365.20532 -177.890867 
L 366.245008 -177.749752 
L 367.284697 -177.607077 
L 368.324385 -177.462843 
L 369.364073 -177.317049 
L 370.403761 -177.169695 
L 371.44345 -177.02078 
L 372.483138 -176.870304 
L 373.522826 -176.718268 
L 374.562515 -176.56467 
L 375.602203 -176.409511 
L 376.641891 -176.25279 
L 377.681579 -176.094508 
L 378.721268 -175.934664 
L 379.760956 -175.773259 
L 380.800644 -175.610292 
L 381.840332 -175.445764 
L 382.880021 -175.279674 
L 383.919709 -175.112023 
L 384.959397 -174.94281 
L 385.999085 -174.772036 
L 387.038774 -174.599701 
L 388.078462 -174.425806 
L 389.11815 -174.250349 
L 390.157838 -174.073332 
L 391.197527 -173.894755 
L 392.237215 -173.714618 
L 393.276903 -173.532921 
L 394.316591 -173.349665 
L 395.35628 -173.164849 
L 396.395968 -172.978475 
L 397.435656 -172.790542 
L 398.475344 -172.60105 
L 399.515033 -172.410001 
L 400.554721 -172.217394 
L 401.594409 -172.02323 
L 402.634097 -171.827508 
L 403.673786 -171.630231 
L 404.713474 -171.431397 
L 405.753162 -171.231007 
L 406.79285 -171.029061 
L 407.832539 -170.825561 
L 408.872227 -170.620506 
L 409.911915 -170.413896 
L 410.951603 -170.205733 
L 411.991292 -169.996016 
L 413.03098 -169.784746 
L 414.070668 -169.571923 
L 415.110356 -169.357548 
L 416.150045 -169.14162 
L 417.189733 -168.924142 
L 418.229421 -168.705111 
L 419.269109 -168.484531 
L 420.308798 -168.262399 
L 421.348486 -168.038718 
L 422.388174 -167.813487 
L 423.427862 -167.586706 
L 424.467551 -167.358377 
L 425.507239 -167.128499 
L 426.546927 -166.897073 
L 427.586615 -166.664099 
L 428.626304 -166.429578 
L 429.665992 -166.193509 
L 430.70568 -165.955894 
L 431.745368 -165.716732 
L 432.785057 -165.476025 
L 433.824745 -165.233772 
L 434.864433 -164.989973 
L 435.904121 -164.744629 
L 436.94381 -164.497741 
L 437.983498 -164.249308 
L 439.023186 -163.999332 
L 440.062874 -163.747811 
L 441.102563 -163.494748 
L 442.142251 -163.240141 
L 443.181939 -162.983991 
L 444.221627 -162.726299 
L 445.261316 -162.467065 
L 446.301004 -162.206289 
L 447.340692 -161.943971 
L 448.38038 -161.680112 
L 449.420069 -161.414712 
L 450.459757 -161.147771 
L 451.499445 -160.87929 
L 452.539133 -160.609268 
L 453.578822 -160.337706 
L 454.61851 -160.064605 
L 454.61851 -162.247072 
L 454.61851 -162.247072 
L 453.578822 -162.5005 
L 452.539133 -162.752522 
L 451.499445 -163.003138 
L 450.459757 -163.252349 
L 449.420069 -163.500154 
L 448.38038 -163.746553 
L 447.340692 -163.991548 
L 446.301004 -164.235139 
L 445.261316 -164.477325 
L 444.221627 -164.718107 
L 443.181939 -164.957486 
L 442.142251 -165.195461 
L 441.102563 -165.432032 
L 440.062874 -165.667202 
L 439.023186 -165.900968 
L 437.983498 -166.133333 
L 436.94381 -166.364295 
L 435.904121 -166.593856 
L 434.864433 -166.822016 
L 433.824745 -167.048775 
L 432.785057 -167.274134 
L 431.745368 -167.498092 
L 430.70568 -167.72065 
L 429.665992 -167.941809 
L 428.626304 -168.161569 
L 427.586615 -168.37993 
L 426.546927 -168.596893 
L 425.507239 -168.812457 
L 424.467551 -169.026624 
L 423.427862 -169.239393 
L 422.388174 -169.450766 
L 421.348486 -169.660742 
L 420.308798 -169.869322 
L 419.269109 -170.076505 
L 418.229421 -170.282294 
L 417.189733 -170.486687 
L 416.150045 -170.689686 
L 415.110356 -170.891291 
L 414.070668 -171.091501 
L 413.03098 -171.290318 
L 411.991292 -171.487742 
L 410.951603 -171.683774 
L 409.911915 -171.878413 
L 408.872227 -172.07166 
L 407.832539 -172.263515 
L 406.79285 -172.45398 
L 405.753162 -172.643053 
L 404.713474 -172.830736 
L 403.673786 -173.017029 
L 402.634097 -173.201933 
L 401.594409 -173.385447 
L 400.554721 -173.567572 
L 399.515033 -173.748309 
L 398.475344 -173.927657 
L 397.435656 -174.105617 
L 396.395968 -174.28219 
L 395.35628 -174.457376 
L 394.316591 -174.631174 
L 393.276903 -174.803586 
L 392.237215 -174.974612 
L 391.197527 -175.144251 
L 390.157838 -175.312505 
L 389.11815 -175.479373 
L 388.078462 -175.644855 
L 387.038774 -175.808953 
L 385.999085 -175.971665 
L 384.959397 -176.132992 
L 383.919709 -176.292935 
L 382.880021 -176.451493 
L 381.840332 -176.608667 
L 380.800644 -176.764456 
L 379.760956 -176.918861 
L 378.721268 -177.071882 
L 377.681579 -177.223519 
L 376.641891 -177.373771 
L 375.602203 -177.522639 
L 374.562515 -177.670122 
L 373.522826 -177.816221 
L 372.483138 -177.960935 
L 371.44345 -178.104264 
L 370.403761 -178.246208 
L 369.364073 -178.386767 
L 368.324385 -178.52594 
L 367.284697 -178.663727 
L 366.245008 -178.800128 
L 365.20532 -178.935142 
L 364.165632 -179.068769 
L 363.125944 -179.201009 
L 362.086255 -179.331861 
L 361.046567 -179.461324 
L 360.006879 -179.589398 
L 358.967191 -179.716082 
L 357.927502 -179.841376 
L 356.887814 -179.965278 
L 355.848126 -180.087789 
L 354.808438 -180.208908 
L 353.768749 -180.328633 
L 352.729061 -180.446964 
L 351.689373 -180.5639 
L 350.649685 -180.679439 
L 349.609996 -180.793582 
L 348.570308 -180.906328 
L 347.53062 -181.017674 
L 346.490932 -181.12762 
L 345.451243 -181.236166 
L 344.411555 -181.343309 
L 343.371867 -181.449049 
L 342.332179 -181.553385 
L 341.29249 -181.656315 
L 340.252802 -181.757839 
L 339.213114 -181.857955 
L 338.173426 -181.956661 
L 337.133737 -182.053957 
L 336.094049 -182.149842 
L 335.054361 -182.244313 
L 334.014673 -182.33737 
L 332.974984 -182.429011 
L 331.935296 -182.519235 
L 330.895608 -182.608041 
L 329.85592 -182.695427 
L 328.816231 -182.781392 
L 327.776543 -182.865934 
L 326.736855 -182.949053 
L 325.697167 -183.030746 
L 324.657478 -183.111012 
L 323.61779 -183.189851 
L 322.578102 -183.26726 
L 321.538414 -183.343237 
L 320.498725 -183.417783 
L 319.459037 -183.490895 
L 318.419349 -183.562572 
L 317.379661 -183.632812 
L 316.339972 -183.701615 
L 315.300284 -183.768979 
L 314.260596 -183.834902 
L 313.220908 -183.899383 
L 312.181219 -183.962421 
L 311.141531 -184.024015 
L 310.101843 -184.084162 
L 309.062155 -184.142863 
L 308.022466 -184.200115 
L 306.982778 -184.255918 
L 305.94309 -184.31027 
L 304.903402 -184.36317 
L 303.863713 -184.414617 
L 302.824025 -184.464609 
L 301.784337 -184.513146 
L 300.744649 -184.560225 
L 299.70496 -184.605847 
L 298.665272 -184.65001 
L 297.625584 -184.692713 
L 296.585896 -184.733955 
L 295.546207 -184.773734 
L 294.506519 -184.81205 
L 293.466831 -184.848902 
L 292.427143 -184.884289 
L 291.387454 -184.918209 
L 290.347766 -184.950662 
L 289.308078 -184.981648 
L 288.26839 -185.011164 
L 287.228701 -185.03921 
L 286.189013 -185.065785 
L 285.149325 -185.090889 
L 284.109636 -185.11452 
L 283.069948 -185.136678 
L 282.03026 -185.157362 
L 280.990572 -185.176571 
L 279.950883 -185.194304 
L 278.911195 -185.210561 
L 277.871507 -185.225341 
L 276.831819 -185.238644 
L 275.79213 -185.250467 
L 274.752442 -185.260812 
L 273.712754 -185.269678 
L 272.673066 -185.277063 
L 271.633377 -185.282967 
L 270.593689 -185.28739 
L 269.554001 -185.29033 
L 268.514313 -185.291788 
L 267.474624 -185.291763 
L 266.434936 -185.290255 
L 265.395248 -185.287262 
L 264.35556 -185.282785 
L 263.315871 -185.276823 
L 262.276183 -185.269376 
L 261.236495 -185.260442 
L 260.196807 -185.250023 
L 259.157118 -185.238117 
L 258.11743 -185.224724 
L 257.077742 -185.209843 
L 256.038054 -185.193475 
L 254.998365 -185.175619 
L 253.958677 -185.156275 
L 252.918989 -185.135442 
L 251.879301 -185.11312 
L 250.839612 -185.089309 
L 249.799924 -185.064009 
L 248.760236 -185.03722 
L 247.720548 -185.00894 
L 246.680859 -184.979171 
L 245.641171 -184.947911 
L 244.601483 -184.915161 
L 243.561795 -184.880921 
L 242.522106 -184.84519 
L 241.482418 -184.807969 
L 240.44273 -184.769256 
L 239.403042 -184.729053 
L 238.363353 -184.687359 
L 237.323665 -184.644173 
L 236.283977 -184.599497 
L 235.244289 -184.553329 
L 234.2046 -184.505671 
L 233.164912 -184.456521 
L 232.125224 -184.40588 
L 231.085536 -184.353748 
L 230.045847 -184.300125 
L 229.006159 -184.245011 
L 227.966471 -184.188406 
L 226.926783 -184.13031 
L 225.887094 -184.070724 
L 224.847406 -184.009646 
L 223.807718 -183.947079 
L 222.76803 -183.883021 
L 221.728341 -183.817473 
L 220.688653 -183.750434 
L 219.648965 -183.681906 
L 218.609277 -183.611889 
L 217.569588 -183.540382 
L 216.5299 -183.467386 
L 215.490212 -183.3929 
L 214.450524 -183.316927 
L 213.410835 -183.239465 
L 212.371147 -183.160515 
L 211.331459 -183.080077 
L 210.291771 -182.998152 
L 209.252082 -182.91474 
L 208.212394 -182.829841 
L 207.172706 -182.743457 
L 206.133018 -182.655586 
L 205.093329 -182.56623 
L 204.053641 -182.475389 
L 203.013953 -182.383063 
L 201.974264 -182.289254 
L 200.934576 -182.193961 
L 199.894888 -182.097185 
L 198.8552 -181.998926 
L 197.815511 -181.899186 
L 196.775823 -181.797964 
L 195.736135 -181.695262 
L 194.696447 -181.591079 
L 193.656758 -181.485417 
L 192.61707 -181.378277 
L 191.577382 -181.269658 
L 190.537694 -181.159562 
L 189.498005 -181.047989 
L 188.458317 -180.93494 
L 187.418629 -180.820416 
L 186.378941 -180.704418 
L 185.339252 -180.586946 
L 184.299564 -180.468002 
L 183.259876 -180.347586 
L 182.220188 -180.225698 
L 181.180499 -180.102341 
L 180.140811 -179.977515 
L 179.101123 -179.85122 
L 178.061435 -179.723458 
L 177.021746 -179.59423 
L 175.982058 -179.463537 
L 174.94237 -179.33138 
L 173.902682 -179.19776 
L 172.862993 -179.062677 
L 171.823305 -178.926134 
L 170.783617 -178.788132 
L 169.743929 -178.64867 
L 168.70424 -178.507752 
L 167.664552 -178.365377 
L 166.624864 -178.221548 
L 165.585176 -178.076265 
L 164.545487 -177.929529 
L 163.505799 -177.781342 
L 162.466111 -177.631706 
L 161.426423 -177.480621 
L 160.386734 -177.32809 
L 159.347046 -177.174112 
L 158.307358 -177.018691 
L 157.26767 -176.861826 
L 156.227981 -176.703521 
L 155.188293 -176.543775 
L 154.148605 -176.382591 
L 153.108917 -176.219969 
L 152.069228 -176.055913 
L 151.02954 -175.890422 
L 149.989852 -175.723499 
L 148.950164 -175.555144 
L 147.910475 -175.385361 
L 146.870787 -175.214149 
L 145.831099 -175.041511 
L 144.791411 -174.867448 
L 143.751722 -174.691962 
L 142.712034 -174.515053 
L 141.672346 -174.336725 
L 140.632658 -174.156978 
L 139.592969 -173.975814 
L 138.553281 -173.793234 
L 137.513593 -173.60924 
L 136.473905 -173.423833 
L 135.434216 -173.237016 
L 134.394528 -173.048788 
L 133.35484 -172.859152 
L 132.315152 -172.668109 
L 131.275463 -172.475661 
L 130.235775 -172.281809 
L 129.196087 -172.086554 
L 128.156399 -171.889898 
L 127.11671 -171.691842 
L 126.077022 -171.492387 
L 125.037334 -171.291534 
L 123.997646 -171.089285 
L 122.957957 -170.885641 
L 121.918269 -170.680603 
L 120.878581 -170.474172 
L 119.838892 -170.266349 
L 118.799204 -170.057135 
L 117.759516 -169.846531 
L 116.719828 -169.634539 
L 115.680139 -169.421158 
L 114.640451 -169.20639 
L 113.600763 -168.990236 
L 112.561075 -168.772696 
L 111.521386 -168.553771 
L 110.481698 -168.333462 
L 109.44201 -168.111769 
L 108.402322 -167.888693 
L 107.362633 -167.664235 
L 106.322945 -167.438394 
L 105.283257 -167.211172 
L 104.243569 -166.982568 
L 103.20388 -166.752584 
L 102.164192 -166.521219 
L 101.124504 -166.288474 
L 100.084816 -166.054348 
L 99.045127 -165.818843 
L 98.005439 -165.581958 
L 96.965751 -165.343693 
L 95.926063 -165.104049 
L 94.886374 -164.863025 
L 93.846686 -164.620622 
L 92.806998 -164.376839 
L 91.76731 -164.131676 
L 90.727621 -163.885134 
L 89.687933 -163.637211 
L 88.648245 -163.387909 
L 87.608557 -163.137226 
L 86.568868 -162.885163 
L 85.52918 -162.63172 
L 84.489492 -162.376895 
L 83.449804 -162.120689 
L 82.410115 -161.863102 
L 81.370427 -161.604133 
L 80.330739 -161.343781 
L 79.291051 -161.082048 
L 78.251362 -160.818931 
L 77.211674 -160.554431 
L 76.171986 -160.288547 
L 75.132298 -160.02128 
L 74.092609 -159.752627 
L 73.052921 -159.48259 
L 72.013233 -159.211168 
L 70.973545 -158.93836 
L 69.933856 -158.664165 
L 68.894168 -158.388584 
L 67.85448 -158.111616 
L 66.814792 -157.83326 
L 65.775103 -157.553517 
L 64.735415 -157.272384 
L 63.695727 -156.989863 
L 62.656039 -156.705952 
L 61.61635 -156.420651 
L 60.576662 -156.13396 
L 59.536974 -155.845878 
L 58.497286 -155.556405 
L 57.457597 -155.26554 
L 56.417909 -154.973282 
L 55.378221 -154.679632 
L 54.338533 -154.384589 
L 53.298844 -154.088152 
L 52.259156 -153.79032 
L 51.219468 -153.491095 
L 50.17978 -153.190474 
L 49.140091 -152.888458 
L 48.100403 -152.585045 
L 47.060715 -152.280237 
L 46.021027 -151.974032 
L 44.981338 -151.666429 
L 43.94165 -151.357429 
L 42.901962 -151.047031 
L 41.862274 -150.735235 
L 40.822585 -150.422039 
L 39.782897 -150.107445 
L 38.743209 -149.791451 
z
" style="stroke: #e1ebfb"/>
    </defs>
    <g clip-path="url(#pbb8f236338)">
     <use xlink:href="#m0c58c48e56" x="0" y="273.6" style="fill: #e1ebfb; stroke: #e1ebfb"/>
    </g>
   </g>
   <g id="line2d_25">
    <path d="M 38.743209 124.678892 
L 52.259156 120.576084 
L 65.775103 116.722202 
L 79.291051 113.117246 
L 91.76731 110.010537 
L 104.243569 107.11593 
L 116.719828 104.433427 
L 129.196087 101.963027 
L 141.672346 99.70473 
L 154.148605 97.658537 
L 166.624864 95.824447 
L 179.101123 94.20246 
L 191.577382 92.792577 
L 204.053641 91.594797 
L 216.5299 90.60912 
L 229.006159 89.835547 
L 241.482418 89.274077 
L 253.958677 88.92471 
L 266.434936 88.787447 
L 278.911195 88.862287 
L 291.387454 89.14923 
L 303.863713 89.648277 
L 316.339972 90.359427 
L 328.816231 91.28268 
L 341.29249 92.418037 
L 353.768749 93.765497 
L 366.245008 95.32506 
L 378.721268 97.096727 
L 391.197527 99.080497 
L 403.673786 101.27637 
L 416.150045 103.684347 
L 428.626304 106.304427 
L 441.102563 109.13661 
L 453.578822 112.180897 
L 454.61851 112.444161 
L 454.61851 112.444161 
" clip-path="url(#pbb8f236338)" style="fill: none; stroke: #3169cf; stroke-width: 2.2; stroke-linecap: square"/>
   </g>
   <g id="patch_3">
    <path d="M 38.743209 207.322303 
L 38.743209 3.00024 
" style="fill: none; stroke: #dce5f1; stroke-width: 0.8; stroke-linejoin: miter; stroke-linecap: square"/>
   </g>
   <g id="patch_4">
    <path d="M 454.61851 207.322303 
L 454.61851 3.00024 
" style="fill: none; stroke: #dce5f1; stroke-width: 0.8; stroke-linejoin: miter; stroke-linecap: square"/>
   </g>
   <g id="patch_5">
    <path d="M 38.743209 207.322303 
L 454.61851 207.322303 
" style="fill: none; stroke: #dce5f1; stroke-width: 0.8; stroke-linejoin: miter; stroke-linecap: square"/>
   </g>
   <g id="patch_6">
    <path d="M 38.743209 3.00024 
L 454.61851 3.00024 
" style="fill: none; stroke: #dce5f1; stroke-width: 0.8; stroke-linejoin: miter; stroke-linecap: square"/>
   </g>
   <g id="PathCollection_1">
    <defs>
     <path id="mf7ac2d3c06" d="M 0 2.915476 
C 0.773193 2.915476 1.514823 2.608283 2.061553 2.061553 
C 2.608283 1.514823 2.915476 0.773193 2.915476 0 
C 2.915476 -0.773193 2.608283 -1.514823 2.061553 -2.061553 
C 1.514823 -2.608283 0.773193 -2.915476 0 -2.915476 
C -0.773193 -2.915476 -1.514823 -2.608283 -2.061553 -2.061553 
C -2.608283 -1.514823 -2.915476 -0.773193 -2.915476 0 
C -2.915476 0.773193 -2.608283 1.514823 -2.061553 2.061553 
C -1.514823 2.608283 -0.773193 2.915476 0 2.915476 
z
" style="stroke: #334963"/>
    </defs>
    <g clip-path="url(#pbb8f236338)">
     <use xlink:href="#mf7ac2d3c06" x="52.605719" y="100.904562" style="fill: #334963; stroke: #334963"/>
     <use xlink:href="#mf7ac2d3c06" x="132.315152" y="141.343303" style="fill: #334963; stroke: #334963"/>
     <use xlink:href="#mf7ac2d3c06" x="201.627702" y="81.749368" style="fill: #334963; stroke: #334963"/>
     <use xlink:href="#mf7ac2d3c06" x="257.077742" y="94.519497" style="fill: #334963; stroke: #334963"/>
     <use xlink:href="#mf7ac2d3c06" x="309.062155" y="62.594175" style="fill: #334963; stroke: #334963"/>
     <use xlink:href="#mf7ac2d3c06" x="419.962235" y="115.803046" style="fill: #334963; stroke: #334963"/>
    </g>
   </g>
   <g id="legend_1">
    <g id="line2d_26">
     <path d="M 105.205234 263.071907 
L 113.205234 263.071907 
L 121.205234 263.071907 
" style="fill: none; stroke: #3169cf; stroke-width: 2.2; stroke-linecap: square"/>
    </g>
    <g id="text_15">
     <text style="font-size: 8px; font-family: 'DejaVu Sans'; text-anchor: start" x="127.605234" y="265.871907" transform="rotate(-0 127.605234 265.871907)">Moyenne du GP</text>
    </g>
    <g id="PathCollection_2">
     <g>
      <use xlink:href="#mf7ac2d3c06" x="214.378984" y="263.771907" style="fill: #334963; stroke: #334963"/>
     </g>
    </g>
    <g id="text_16">
     <text style="font-size: 8px; font-family: 'DejaVu Sans'; text-anchor: start" x="228.778984" y="265.871907" transform="rotate(-0 228.778984 265.871907)">Observations</text>
    </g>
    <g id="patch_7">
     <path d="M 297.662734 265.871907 
L 313.662734 265.871907 
L 313.662734 260.271907 
L 297.662734 260.271907 
z
" style="fill: #e1ebfb; stroke: #e1ebfb; stroke-linejoin: miter"/>
    </g>
    <g id="text_17">
     <text style="font-size: 8px; font-family: 'DejaVu Sans'; text-anchor: start" x="320.062734" y="265.871907" transform="rotate(-0 320.062734 265.871907)">Intervalle à 95 %</text>
    </g>
   </g>
  </g>
 </g>
 <defs>
  <clipPath id="pbb8f236338">
   <rect x="38.743209" y="3.00024" width="415.875301" height="204.322063"/>
  </clipPath>
 </defs>
</svg>
